# xmcd CD database file
#
# Track frame offsets:
#	150
#	17272
#	37374
#	61626
#	76799
#	94724
#	111595
#	140318
#	157192
#	178512
#	203983
#	230252
#	248138
#	271815
#	292083
#	310875
#	325180
#	331993
#
# Disc length: 4653 seconds
#
# Revision: 3
# Processed by: cddbd v1.5.2PL0 Copyright (c) Steve Scherf et al.
# Submitted via: CDex 1.70beta2
#
DISCID=f8122b12
DTITLE=Skoda - Soundtrack
DYEAR=2002
DGENRE=Jazz
TTITLE0=Blue cartoon
TTITLE1=#34
TTITLE2=Workin' G
TTITLE3=San Francisco
TTITLE4=Lifestyles
TTITLE5=Jay's Hole
TTITLE6=Wrong
TTITLE7=G. O. Lights
TTITLE8=Brightest Light
TTITLE9=Women Bleed
TTITLE10=Trippin' Colors
TTITLE11=Orient Mucho
TTITLE12=Horror IV
TTITLE13=Smokin' G
TTITLE14=Предомвам
TTITLE15=Brother Sun
TTITLE16=Where We're From!
TTITLE17=Seventh Party
EXTD=YEAR: 2002
EXTT0=
EXTT1=
EXTT2=
EXTT3=
EXTT4=
EXTT5=
EXTT6=
EXTT7=
EXTT8=
EXTT9=
EXTT10=
EXTT11=
EXTT12=
EXTT13=
EXTT14=
EXTT15=
EXTT16=
EXTT17=
PLAYORDER=
